<svg xmlns="http://www.w3.org/2000/svg" viewBox="0 0 132.204 122.611">
  <defs>
    <style>
      .cls-1 {
        fill: #f37032;
      }
    </style>
  </defs>
  <g id="ico-subscribe" transform="translate(0 -16.43)">
    <path id="Path_336" data-name="Path 336" class="cls-1" d="M131.224,67.219h0L114.343,56.027V18.62a2.19,2.19,0,0,0-2.19-2.19H20.048a2.19,2.19,0,0,0-2.19,2.19V56.03L.98,67.219h0A2.187,2.187,0,0,0,0,69.044v67.807a2.19,2.19,0,0,0,2.19,2.19H130.014a2.19,2.19,0,0,0,2.19-2.19V69.044A2.187,2.187,0,0,0,131.224,67.219ZM17.858,74.877,10.99,71.234h6.868ZM4.379,72.684l50.353,26.71L4.379,132.771ZM66.1,97.111l56.648,37.55H9.453Zm11.37,2.283,50.354-26.71v60.088L77.471,99.394Zm36.872-28.161h6.871l-6.871,3.645Zm8.406-4.379h-8.406V61.281ZM109.964,20.809V77.2L73.317,96.641l-6.006-3.981a2.189,2.189,0,0,0-2.419,0L58.886,96.64,22.237,77.2V20.809h87.726ZM17.858,66.855h-8.4l8.4-5.57Z" transform="translate(0)"/>
    <path id="Path_337" data-name="Path 337" class="cls-1" d="M178.8,116.864H196.24a2.19,2.19,0,0,0,0-4.379H178.8A15.272,15.272,0,0,1,163.54,97.23v-.646a15.255,15.255,0,0,1,30.51,0V98.2a3.3,3.3,0,0,1-6.6,0V95.13a9.474,9.474,0,1,0-3.228,7.107A7.679,7.679,0,0,0,198.43,98.2V96.583a19.634,19.634,0,1,0-39.269,0v.646A19.657,19.657,0,0,0,178.8,116.864Zm-.808-16.655a5.079,5.079,0,1,1,5.079-5.079A5.085,5.085,0,0,1,177.988,100.209Z" transform="translate(-112.695 -42.851)"/>
  </g>
</svg>
