<svg xmlns="http://www.w3.org/2000/svg" viewBox="0 0 155.617 125.046">
  <defs>
    <style>
      .cls-1 {
        fill: #f37032;
      }
    </style>
  </defs>
  <g id="ico-zapis" transform="translate(0 -50.292)">
    <g id="Group_557" data-name="Group 557" transform="translate(0 50.292)">
      <g id="Group_556" data-name="Group 556">
        <path id="Path_330" data-name="Path 330" class="cls-1" d="M150.1,108.447c-2.936-3.756-6.139.049-4.055,2.291,8.643,9.33,5.687,26.925-5.75,34.85a2.28,2.28,0,0,0-.961,2.166c1.328,10.253-1.913,19.629-4.541,22.542-.711-2.644.215-6.488-1.457-11.61l-2.166.711,2.152-.754c-3.593-11.056-20.936-11.491-21.5,6.747a24.609,24.609,0,0,1-.359,4.9h0c-2.581-2.848-5.659-11.752-4.662-21.493.094-.931.472-2.3-.842-3.209a24.284,24.284,0,0,1-5.777-5.724c-13.891-19.283,3.1-43.178,21.685-30.84a2.279,2.279,0,0,0,2.522,0c4.829-3.206,10.68-4.337,16.052-2.177a2.28,2.28,0,1,0,1.7-4.231c-5.65-2.271-12.509-1.992-19.014,1.821a23.842,23.842,0,0,0-6.758-2.706V68.175a5.938,5.938,0,0,0-5.931-5.931h-6.512V55.655a5.369,5.369,0,0,0-5.363-5.363H97.28a5.369,5.369,0,0,0-5.363,5.363v6.589H88.354V55.655a5.368,5.368,0,0,0-5.363-5.363H81.706a5.368,5.368,0,0,0-5.362,5.363v6.589H40.025V55.655a5.369,5.369,0,0,0-5.363-5.363H33.378a5.368,5.368,0,0,0-5.363,5.363v6.589H24.452V55.655a5.368,5.368,0,0,0-5.362-5.363H17.8a5.368,5.368,0,0,0-5.362,5.363v6.589H5.931A5.937,5.937,0,0,0,0,68.174v85.34a5.938,5.938,0,0,0,5.931,5.931H18.3a2.28,2.28,0,0,0,0-4.56H5.931a1.373,1.373,0,0,1-1.371-1.371V91.363h87.1a2.28,2.28,0,1,0,0-4.56H4.56V68.175A1.373,1.373,0,0,1,5.931,66.8h6.512v4.521a5.37,5.37,0,0,0,4.815,5.335,17.9,17.9,0,0,0,1.832.028,5.369,5.369,0,0,0,5.362-5.363V66.8h3.562v4.521a5.37,5.37,0,0,0,4.816,5.335,17.689,17.689,0,0,0,1.832.028,5.369,5.369,0,0,0,5.363-5.363V66.8H76.345v4.521a5.37,5.37,0,0,0,4.815,5.335,17.911,17.911,0,0,0,1.832.028,5.369,5.369,0,0,0,5.363-5.363V66.8h3.562v4.521a5.369,5.369,0,0,0,5.363,5.363,17.792,17.792,0,0,0,1.832-.028,5.37,5.37,0,0,0,4.816-5.335V66.8h6.512a1.373,1.373,0,0,1,1.371,1.371V86.8H99.162a2.28,2.28,0,1,0,0,4.56h12.648v9.817a19.86,19.86,0,0,0-9.2,2.115l.024-.012a21.727,21.727,0,0,0-11.073,14.165h0a27.1,27.1,0,0,0-.926,6.863,30.537,30.537,0,0,0,11.608,24.2,44.174,44.174,0,0,0-.133,6.37H26a2.28,2.28,0,0,0,0,4.56h76.592c1.264,7.993,5.506,17.791,10.688,15.575h0c2.716-1.191,3.07-5.231,3.07-8.177a26.645,26.645,0,0,1,.286-4.073c.082-.541.191-1.09.314-1.6h0c.087-.338.2-.793.41-1.394a6.02,6.02,0,0,1,11.516-.043h0a18.806,18.806,0,0,1,.941,4.827c.178,3.3-.274,8.946,3.152,10.458h0c6.111,2.707,12.4-12.326,11.038-26.5C156.439,138.771,159.547,120,150.1,108.447ZM19.893,71.325a.8.8,0,0,1-.8.8H17.805a.8.8,0,0,1-.8-.8V55.654a.8.8,0,0,1,.8-.8h1.285a.8.8,0,0,1,.8.8Zm15.572,0a.8.8,0,0,1-.8.8H33.378a.8.8,0,0,1-.8-.8V55.654a.8.8,0,0,1,.8-.8h1.284a.8.8,0,0,1,.8.8Zm48.329,0a.8.8,0,0,1-.8.8H81.706a.8.8,0,0,1-.8-.8V55.654a.8.8,0,0,1,.8-.8h1.285a.8.8,0,0,1,.8.8Zm15.572,0a.8.8,0,0,1-.8.8H97.279a.8.8,0,0,1-.8-.8V55.654a.8.8,0,0,1,.8-.8h1.284a.8.8,0,0,1,.8.8Z" transform="translate(0 -50.292)"/>
        <path id="Path_331" data-name="Path 331" class="cls-1" d="M49.348,218.023h76.636a2.28,2.28,0,0,0,0-4.56H49.348a2.28,2.28,0,0,0,0,4.56Z" transform="translate(-32.762 -163.869)"/>
        <path id="Path_332" data-name="Path 332" class="cls-1" d="M49.348,252.058H119.79a2.28,2.28,0,1,0,0-4.56H49.348a2.28,2.28,0,0,0,0,4.56Z" transform="translate(-32.762 -187.559)"/>
        <path id="Path_333" data-name="Path 333" class="cls-1" d="M49.348,286.093h68.464a2.28,2.28,0,1,0,0-4.56H49.348a2.28,2.28,0,1,0,0,4.56Z" transform="translate(-32.762 -211.249)"/>
        <path id="Path_334" data-name="Path 334" class="cls-1" d="M49.348,320.127h69.833a2.28,2.28,0,0,0,0-4.56H49.348a2.28,2.28,0,0,0,0,4.56Z" transform="translate(-32.762 -234.939)"/>
        <path id="Path_335" data-name="Path 335" class="cls-1" d="M49.348,354.164h74.4a2.28,2.28,0,1,0,0-4.56h-74.4a2.28,2.28,0,0,0,0,4.56Z" transform="translate(-32.762 -258.631)"/>
      </g>
    </g>
  </g>
</svg>
