<svg xmlns="http://www.w3.org/2000/svg" viewBox="0 0 960.3 824.338">
  <defs>
    <style>
      .cls-1 {
        fill: #fff;
      }
    </style>
  </defs>
  <g id="text2" transform="translate(0 -67.981)">
    <path id="Path_407" data-name="Path 407" class="cls-1" d="M45.6,887.882l156-95.1a60.278,60.278,0,0,1,31.2-8.8H900.3a60.048,60.048,0,0,0,60-60v-596a60.048,60.048,0,0,0-60-60H60a60.048,60.048,0,0,0-60,60v734.3A29.981,29.981,0,0,0,45.6,887.882Zm117.8-643.3H796.8a30,30,0,1,1,0,60H163.4a30,30,0,0,1,0-60Zm0,143.3H796.8a30,30,0,0,1,0,60H163.4a30,30,0,1,1,0-60Zm0,143.3H480.1a30,30,0,0,1,0,60H163.4a30,30,0,1,1,0-60Z"/>
  </g>
</svg>
